<?xml version="1.0" encoding="utf-8" standalone="no"?><!-- Created with Inkscape (http://www.inkscape.org/) --><svg width="100mm" height="100mm" viewBox="0 0 100 100" version="1.1" id="svg1" inkscape:version="1.4.2 (ebf0e94, 2025-05-08)" sodipodi:docname="ku-vagabond.svg" xmlns:inkscape="http://www.inkscape.org/namespaces/inkscape" xmlns:sodipodi="http://sodipodi.sourceforge.net/DTD/sodipodi-0.dtd" xmlns="http://www.w3.org/2000/svg"><sodipodi:namedview id="namedview1" pagecolor="#ffffff" bordercolor="#666666" borderopacity="1.0" inkscape:showpageshadow="2" inkscape:pageopacity="0.0" inkscape:pagecheckerboard="0" inkscape:deskcolor="#d1d1d1" inkscape:document-units="mm" inkscape:zoom="0.76791526" inkscape:cx="173.84731" inkscape:cy="214.86746" inkscape:window-width="1920" inkscape:window-height="1057" inkscape:window-x="-8" inkscape:window-y="-8" inkscape:window-maximized="1" inkscape:current-layer="layer1" showgrid="false" /><defs id="defs1" /><g inkscape:label="Layer 1" inkscape:groupmode="layer" id="layer1"><path style="fill:#8b7b65;fill-opacity:1;stroke-width:0.204671" d="M 42.365007,93.864826 C 32.368385,92.78 25.686661,90.081572 23.117042,86.091499 c -1.477058,-2.293554 -1.481514,-2.284813 0.873551,-1.714931 4.999555,1.209803 14.131484,1.969045 18.826059,1.565231 7.166069,-0.61642 7.863945,-2.256686 7.469607,-17.556423 C 50.031316,58.493915 50.103822,58.579525 41.443986,57.945298 36.24977,57.564892 25.41987,56.549825 21.505277,56.076484 c -2.613204,-0.315977 -4.043336,-0.264241 -4.560527,0.164992 -0.38159,0.316688 -0.348952,-0.840241 0.145311,-5.150824 1.864183,-16.257983 3.244372,-19.354903 9.571478,-21.476873 6.249284,-2.09587 19.633604,-2.183329 31.008559,-0.202619 7.561952,1.316755 11.693951,-0.132194 14.280351,-5.007607 0.610038,-1.149945 0.599007,-1.149411 1.525617,-0.07364 2.549577,2.959899 4.209662,8.85748 5.626841,19.98974 0.349912,2.748656 0.763195,5.695922 0.918402,6.549477 0.805139,4.427801 0.66363,6.157026 -0.503836,6.157026 -0.427949,0 -1.502054,0.136433 -2.386907,0.30319 -0.884845,0.166756 -3.404795,0.58263 -5.599897,0.924173 -5.917942,0.920769 -6.797782,1.258003 -7.744613,2.9684 -0.745024,1.345834 -0.279054,18.747498 0.561976,20.98715 1.335824,3.557305 5.32271,4.362319 12.964607,2.617769 2.400042,-0.547898 2.615881,0.101893 0.99702,3.001532 -2.075348,3.7173 -23.759162,7.358846 -35.944652,6.03649 z M 54.602272,92.202351 C 58.922083,90.013723 59.76791,84.939489 58.742927,67.362025 58.578823,64.547795 58.300334,59.436128 58.12407,56.002763 57.050546,35.092779 55.672076,33.121073 41.51047,32.2395 32.456691,31.675891 25.339213,32.1557 24.080407,33.414508 c -0.864415,0.864408 -0.82549,0.908083 0.580532,0.651338 0.691152,-0.126206 4.206967,-0.168636 9.107873,-0.109915 18.823904,0.225547 20.367761,1.419878 21.487861,16.623041 0.17416,2.363956 0.498205,6.600656 0.720085,9.414886 1.810883,22.968254 1.58064,27.509691 -1.571295,30.992695 -1.517069,1.676407 -1.456074,2.053232 0.196809,1.215798 z M 34.689833,84.431685 c -4.580124,-0.399065 -6.426371,-0.656738 -9.501406,-1.326077 -7.138852,-1.553898 -7.882675,-2.090541 -8.838499,-6.376589 -0.415809,-1.864545 -0.64374,-8.036632 -0.296787,-8.036632 0.137725,0 0.956519,0.177432 1.819544,0.394292 5.141399,1.291955 15.262458,2.468858 21.243689,2.470273 4.062253,7.74e-4 3.855154,0.100702 4.305129,-2.073375 0.664346,-3.209829 4.16943,-8.016109 5.138911,-7.046621 0.288066,0.288066 0.169974,17.748599 -0.126942,18.7698 -0.921365,3.168814 -4.56771,4.024427 -13.743639,3.224929 z M 69.055289,84.247747 C 67.031948,83.992843 66.114188,83.089479 65.624052,80.870334 65.158554,78.762749 64.74893,63.234412 65.142495,62.615393 c 0.893989,-1.406086 5.16816,3.710865 6.016377,7.202687 0.399181,1.643291 0.551595,1.7397 2.750202,1.7397 3.128541,0 9.523694,-1.091958 10.989499,-1.876427 1.86227,-0.996663 0.767574,9.914447 -1.140739,11.369987 -1.394777,1.063855 -7.363984,2.759693 -10.896803,3.095767 -0.675411,0.06421 -1.550386,0.145638 -1.944376,0.180858 -0.39399,0.0352 -1.23161,-7.73e-4 -1.861366,-0.08022 z M 32.131442,69.594189 c -8.988761,-0.999124 -15.960725,-2.300857 -17.016609,-3.177162 -0.643897,-0.534391 0.10556,-5.568524 1.101412,-7.398235 0.907681,-1.667705 1.940301,-2.040561 4.373413,-1.579132 1.12467,0.213294 7.770389,0.901036 10.723098,1.109712 15.734596,1.111963 17.775303,1.492578 15.426177,2.877182 -2.144759,1.264146 -3.736579,3.613922 -4.725669,6.975833 -0.48415,1.645627 -3.033164,1.953047 -9.881822,1.191802 z m 40.347094,-1.262196 c -1.151082,-3.105228 -2.883819,-5.390172 -5.115643,-6.745931 -1.522631,-0.924954 -1.293974,-1.079628 2.347618,-1.588019 1.28251,-0.179049 4.072659,-0.609002 6.200328,-0.955449 6.362307,-1.035983 7.156793,-0.638961 8.866262,4.430671 1.039534,3.082849 1.080641,3.670028 0.28573,4.081098 -1.767656,0.914086 -9.210953,2.400406 -11.837801,2.363832 -0.08763,-0.0015 -0.423555,-0.71501 -0.746494,-1.586202 z M 23.371098,28.895288 c -3.385562,-1.207598 -5.464313,-5.396856 -5.464313,-11.012095 0,-7.776762 5.538363,-12.188039 13.098964,-10.4332781 1.780117,0.4131588 1.810465,0.4814488 0.682735,1.5363073 -3.714339,3.4743248 -4.741905,11.2763978 -2.323061,17.6384408 0.263279,0.692476 0.406322,0.569719 -1.327408,1.13913 -0.787985,0.258795 -1.89321,0.684849 -2.456056,0.946784 -1.1838,0.550915 -1.184129,0.550938 -2.210861,0.184711 z M 61.297101,28.657921 C 52.187215,26.999824 52.703118,27.192564 52.103044,25.222993 49.975434,18.239696 52.21931,8.9439703 56.352136,7.6202066 66.221829,4.45888 72.285556,7.5423396 72.712105,15.939412 c 0.430533,8.475528 -6.754385,13.059773 -9.794301,6.249127 -2.403763,-5.385415 1.93063,-12.3000512 5.302751,-8.459422 2.289191,2.607256 1.218173,7.948887 -1.37816,6.873452 -0.613565,-0.254154 -0.951573,-1.235973 -0.425497,-1.235973 0.775587,0 1.293672,-2.384083 0.701735,-3.229199 -0.937277,-1.338144 -2.124778,0.149994 -2.132954,2.672932 -0.01826,5.641881 5.285285,4.592236 5.48764,-1.086072 0.26124,-7.330827 -7.127543,-10.0881847 -9.216575,-3.439468 -1.929392,6.140642 0.360804,11.419421 5.310642,12.240749 1.56701,0.26001 1.701409,0.363883 1.125694,0.870009 -1.206299,1.060498 -4.228206,1.656929 -6.395979,1.262374 z M 31.323377,25.29693 C 27.162472,12.12534 36.204012,3.5905579 50.75653,6.9529562 c 2.157028,0.4983898 2.141781,0.457979 0.830642,2.2008499 -2.874738,3.8213519 -3.66302,12.1206619 -1.652535,17.3985519 0.0915,0.240214 -1.31527,0.290805 -8.995894,0.323464 -9.104364,0.03876 -9.104364,0.03876 -9.615366,-1.578892 z" id="path1" /></g></svg>